<svg width="1280" height="640" viewBox="0 0 1280 640" fill="none" xmlns="http://www.w3.org/2000/svg">
  <rect width="1280" height="640" rx="40" fill="#FBFBFA"/>
  <rect x="48" y="48" width="1184" height="544" rx="32" fill="#111111"/>
  <circle cx="1042" cy="82" r="220" fill="#EDF3EC"/>
  <circle cx="184" cy="532" r="240" fill="#E1F3FE"/>
  <path d="M92 92H1188V548H92V92Z" fill="#FBFBFA"/>
  <rect x="92" y="92" width="1096" height="456" rx="28" fill="#FBFBFA" stroke="#D7D7D2" stroke-width="2"/>
  <g transform="translate(132 136)">
    <circle cx="60" cy="60" r="37" fill="#FBFBFA" stroke="#111111" stroke-width="7"/>
    <circle cx="60" cy="60" r="16" fill="#111111"/>
    <path d="M60 4V26M60 94V116M4 60H26M94 60H116M20 20L36 36M84 84L100 100M100 20L84 36M36 84L20 100" stroke="#111111" stroke-width="7" stroke-linecap="round"/>
    <circle cx="60" cy="4" r="4" fill="#111111"/>
    <circle cx="60" cy="116" r="4" fill="#111111"/>
    <circle cx="4" cy="60" r="4" fill="#111111"/>
    <circle cx="116" cy="60" r="4" fill="#111111"/>
  </g>
  <text x="292" y="186" fill="#111111" font-family="Georgia, 'Times New Roman', serif" font-size="72" font-weight="700">WP AI Kits</text>
  <text x="296" y="232" fill="#555555" font-family="Inter, Arial, sans-serif" font-size="24" font-weight="500">AI metadata for WordPress media libraries</text>
  <text x="132" y="328" fill="#111111" font-family="Inter, Arial, sans-serif" font-size="34" font-weight="700">Write alt text, titles, and descriptions in the background.</text>
  <text x="132" y="376" fill="#555555" font-family="Inter, Arial, sans-serif" font-size="24">Bring useful, searchable image metadata to your media library using your own Gemini or Groq key.</text>
  <g transform="translate(132 438)">
    <rect width="178" height="54" rx="27" fill="#111111"/>
    <text x="28" y="35" fill="#FFFFFF" font-family="Inter, Arial, sans-serif" font-size="18" font-weight="700">Free plugin</text>
    <rect x="198" width="184" height="54" rx="27" fill="#FFFFFF" stroke="#D7D7D2"/>
    <text x="226" y="35" fill="#111111" font-family="Inter, Arial, sans-serif" font-size="18" font-weight="700">No credits</text>
    <rect x="402" width="242" height="54" rx="27" fill="#FFFFFF" stroke="#D7D7D2"/>
    <text x="430" y="35" fill="#111111" font-family="Inter, Arial, sans-serif" font-size="18" font-weight="700">Queue aware</text>
  </g>
  <g transform="translate(868 178)">
    <rect width="242" height="292" rx="24" fill="#FFFFFF" stroke="#D7D7D2"/>
    <rect x="28" y="34" width="186" height="18" rx="9" fill="#111111"/>
    <rect x="28" y="78" width="132" height="14" rx="7" fill="#D7D7D2"/>
    <rect x="28" y="112" width="186" height="58" rx="14" fill="#EDF3EC"/>
    <circle cx="58" cy="141" r="12" fill="#346538"/>
    <rect x="82" y="132" width="88" height="18" rx="9" fill="#346538"/>
    <rect x="28" y="194" width="186" height="58" rx="14" fill="#E1F3FE"/>
    <circle cx="58" cy="223" r="12" fill="#1F6C9F"/>
    <rect x="82" y="214" width="108" height="18" rx="9" fill="#1F6C9F"/>
  </g>
</svg>
